<?xml version="1.0" encoding="UTF-8"?>
<svg xmlns="http://www.w3.org/2000/svg" xmlns:xlink="http://www.w3.org/1999/xlink" version="1.1" width="73px" height="73px" style="shape-rendering:geometricPrecision; text-rendering:geometricPrecision; image-rendering:optimizeQuality; fill-rule:evenodd; clip-rule:evenodd">
  <g>
    <path style="opacity:0.937" fill="#ff7b00" d="M 18.5,10.5 C 29.9206,18.2931 41.4206,25.9597 53,33.5C 57.0823,32.8413 58.4156,30.508 57,26.5C 52.0348,22.6088 47.2014,18.6088 42.5,14.5C 51.9795,8.89229 60.4795,10.2256 68,18.5C 74.0958,37.31 67.2625,46.6433 47.5,46.5C 47.6658,51.1785 47.4992,55.8452 47,60.5C 43.5954,63.0768 40.262,63.0768 37,60.5C 36.6667,52.8333 36.3333,45.1667 36,37.5C 30.8159,45.1703 23.6492,48.0036 14.5,46C 3.22567,40.8682 -0.274326,32.3682 4,20.5C 7.30486,14.7778 12.1382,11.4444 18.5,10.5 Z M 19.5,23.5 C 25.1667,23.5 30.8333,23.5 36.5,23.5C 36.5,26.8333 36.5,30.1667 36.5,33.5C 30.1579,33.6662 23.8246,33.4995 17.5,33C 14.5227,29.0526 15.1894,25.8859 19.5,23.5 Z"></path>
  </g>
</svg>
